# xmcd
#
# Track frame offsets: 
#        150
#        15438
#        28690
#        46764
#        61242
#        77811
#        93392
#        109468
#        123167
#        136952
#        150207
#        162136
#        176965
#        193695
#        212477
#        229559
#
# Disc length: 3264 seconds
#
# Revision: 8
# Processed by: cddbd v1.5.2PL0 Copyright (c) Steve Scherf et al.
# Submitted via: ExactAudioCopyFreeDBPlugin 1.0
#
DISCID=c30cbe10
DTITLE=Tanya Tucker - The Very best of Tanya Tucker
DYEAR=1998
DGENRE=Country
TTITLE0=Delta Dawn
TTITLE1=San Antonio stroll
TTITLE2=Texas (When I die)
TTITLE3=Just another love
TTITLE4=I won't take less than your love
TTITLE5=Highway robbery
TTITLE6=My arms stay open all night
TTITLE7=Take another run
TTITLE8=If your heart ain't busy tonight
TTITLE9=(Without you) What do I do with me
TTITLE10=It's a little too late
TTITLE11=What do they know
TTITLE12=Tell me about it
TTITLE13=Two sparrows in a hurricane
TTITLE14=We don't have to do this
TTITLE15=Hangin' in
EXTD=
EXTT0=
EXTT1=
EXTT2=
EXTT3=
EXTT4=
EXTT5=
EXTT6=
EXTT7=
EXTT8=
EXTT9=
EXTT10=
EXTT11=
EXTT12=
EXTT13=
EXTT14=
EXTT15=
PLAYORDER=
